<svg id="Capa_1" data-name="Capa 1" xmlns="http://www.w3.org/2000/svg" viewBox="0 0 566.93 566.93"><defs><style>.cls-1{fill:#6d686a;}.cls-2{fill:#090609;}.cls-3{fill:#fff;}.cls-4{fill:#392e36;}.cls-5{fill:none;stroke:#fff;stroke-linecap:round;stroke-linejoin:round;stroke-width:0.75px;}.cls-6{fill:#fc0;}</style></defs><title>Mesa de trabajo 1 copia</title><rect class="cls-1" x="161.51" y="8.3" width="273.78" height="546.03" rx="14.05" ry="14.05"/><path class="cls-2" d="M175.78,11.29H421.59a12.19,12.19,0,0,1,12.19,12.19V538a12.2,12.2,0,0,1-12.2,12.2H175.78A12.19,12.19,0,0,1,163.58,538V23.49A12.19,12.19,0,0,1,175.78,11.29Z"/><rect class="cls-3" x="171.33" y="53.44" width="255.3" height="452.96"/><path class="cls-4" d="M324.52,37.37h-53.9a1.89,1.89,0,0,1-1.89-1.89h0a1.89,1.89,0,0,1,1.89-1.89h53.9a1.89,1.89,0,0,1,1.89,1.89h0A1.89,1.89,0,0,1,324.52,37.37Z"/><rect class="cls-3" x="212.25" y="521.97" width="10.24" height="1.4"/><rect class="cls-5" x="295.24" y="522.74" width="8.02" height="7.91"/><path class="cls-5" d="M375,522.26l-3.7,3.7a1.42,1.42,0,0,0,0,2l3.7,3.7"/><path class="cls-6" d="M372.26,295.22q4.17,10.11,3.92,24.84-.28,17.38-6.37,29.79A62,62,0,0,1,354,370.46a71.85,71.85,0,0,1-22.19,12.62,110,110,0,0,1-25.66,5.82l-.57,35.63-23,.87.58-36.22a178.54,178.54,0,0,1-39.28-6.42A152.69,152.69,0,0,1,209,368.47l25-51.24A163.77,163.77,0,0,0,250.5,326a156.5,156.5,0,0,0,17.28,6.84A94.3,94.3,0,0,0,288,337.24l.42-25.91q-8.88-2-17.73-4.9a139.57,139.57,0,0,1-23.13-9.29,58.27,58.27,0,0,1-15.91-11.73,41.45,41.45,0,0,1-9.08-15.4,61.31,61.31,0,0,1-2.7-20.18,73.8,73.8,0,0,1,5.63-28.3,69.72,69.72,0,0,1,14.44-21.59A74,74,0,0,1,261,185a88.65,88.65,0,0,1,25.56-7.73l.48-29.74,23-.87-.48,30a138.88,138.88,0,0,1,18.34,2.83,172,172,0,0,1,17,4.82q8.13,2.78,15.26,5.87T373.28,196l-24.92,48.3a107.84,107.84,0,0,0-13.67-7.14,115.21,115.21,0,0,0-14.14-5.49,100.28,100.28,0,0,0-15.88-3.65l-.43,26.5a47.84,47.84,0,0,1,5.43,1.4c1.92.63,3.92,1.18,6,1.69A198.59,198.59,0,0,1,341,266.37a74.55,74.55,0,0,1,19.19,11.78A44.56,44.56,0,0,1,372.26,295.22Zm-59.53,39a8.13,8.13,0,0,0,3-6.31,8.81,8.81,0,0,0-3.33-7.06,29.46,29.46,0,0,0-9.11-5.12l-.35,21.79c4.61-.57,7.87-1.68,9.82-3.3m-23.36-84.14.36-22.35q-11.55,1.92-11.67,10.44a9.06,9.06,0,0,0,2.78,7.08,24.42,24.42,0,0,0,8.54,4.83"/></svg>