<?xml version="1.0" encoding="iso-8859-1"?>
<!-- Generator: Adobe Illustrator 19.0.0, SVG Export Plug-In . SVG Version: 6.00 Build 0)  -->
<svg xmlns="http://www.w3.org/2000/svg" xmlns:xlink="http://www.w3.org/1999/xlink" version="1.1" id="Layer_1" x="0px" y="0px" viewBox="0 0 505 505" style="enable-background:new 0 0 505 505;" xml:space="preserve" width="512" height="512">
<g>
	<g>
		<path style="fill:#E6E6E6;" d="M497.503,59.619v322.64c0,27.4-22.22,49.62-49.62,49.62H57.123c-27.41,0-49.62-22.22-49.62-49.62    V59.619c0-27.4,22.21-49.62,49.62-49.62h390.76C475.283,9.999,497.503,32.219,497.503,59.619z"/>
		<path style="fill:#3E5268;" d="M497.503,356.109v26.15c0,27.4-22.22,49.62-49.62,49.62H57.123c-27.41,0-49.62-22.22-49.62-49.62    v-26.15H497.503z"/>
		<path style="fill:#27394C;" d="M376.955,463.438c0,8.71-3.53,16.61-9.24,22.32c-5.71,5.71-13.61,9.24-22.32,9.24h-185.79    c-17.43,0-31.56-14.13-31.56-31.56c0-8.71,3.53-16.61,9.24-22.32c5.72-5.71,13.6-9.24,22.32-9.24h185.79    C362.825,431.878,376.955,446.008,376.955,463.438z"/>
		<path style="fill:#3E5268;" d="M376.955,463.438c0,8.71-3.53,16.61-9.24,22.32c-5.71,5.71-13.61,9.24-22.32,9.24h-124.58    c-17.43,0-31.56-14.13-31.56-31.56c0-8.71,3.53-16.61,9.24-22.32c5.71-5.71,13.61-9.24,22.32-9.24h124.58    C362.825,431.878,376.955,446.008,376.955,463.438z"/>
	</g>
	<g>
		<path d="M497.5,139.383c4.143,0,7.5-3.358,7.5-7.5V59.62c0-31.496-25.623-57.12-57.119-57.12H57.12C25.624,2.5,0,28.124,0,59.62    v322.638c0,31.496,25.624,57.12,57.12,57.12h71.752c-5.208,6.638-8.324,14.99-8.324,24.061c0,21.539,17.522,39.061,39.062,39.061    h185.782c21.538,0,39.061-17.522,39.061-39.061c0-9.071-3.117-17.423-8.324-24.061h71.753c31.496,0,57.119-25.624,57.119-57.12    V161.884c0-4.142-3.357-7.5-7.5-7.5s-7.5,3.358-7.5,7.5v186.723H139.538c-4.143,0-7.5,3.358-7.5,7.5s3.357,7.5,7.5,7.5H490v18.65    c0,23.225-18.895,42.12-42.119,42.12H345.392H159.609H57.12c-23.226,0-42.12-18.895-42.12-42.12v-18.65h94.536    c4.143,0,7.5-3.358,7.5-7.5s-3.357-7.5-7.5-7.5H15V59.62C15,36.396,33.895,17.5,57.12,17.5h390.761    C471.105,17.5,490,36.396,490,59.62v72.263C490,136.025,493.357,139.383,497.5,139.383z M345.392,439.377    c13.267,0,24.061,10.794,24.061,24.061S358.658,487.5,345.392,487.5H159.609c-13.268,0-24.062-10.794-24.062-24.061    s10.794-24.061,24.062-24.061H345.392z"/>
		<path d="M249.635,398.028c6.391,2.696,12.679-4.414,9.475-10.455c-1.499-2.825-4.744-4.406-7.894-3.856    c-3.207,0.56-5.77,3.229-6.157,6.472C244.665,393.497,246.55,396.754,249.635,398.028z"/>
		<path d="M131.651,177.315c-2.577-2.007-4.612-3.593-6.981-3.593c-4.731,0-8.293,6.213-8.293,10.241    c0,7.707,11.812,16.582,27.934,17.662v7.738c0,4.142,3.357,7.5,7.5,7.5s7.5-3.358,7.5-7.5v-8.747    c14.88-3.579,23.332-14.104,23.332-29.317c0-17.263-11.089-24.113-23.332-28.985v-24.297c3.393,0.696,5.786,1.895,7.79,2.913    c1.845,0.937,3.438,1.746,5.162,1.746c5.497,0,7.875-6.689,7.875-10.102c0-3.771-3.057-6.845-8.839-8.891    c-4.135-1.463-8.696-2.109-11.988-2.395v-9.21c0-4.142-3.357-7.5-7.5-7.5s-7.5,3.358-7.5,7.5v9.592    c-8.984,1.576-25.43,7.212-25.43,27.325c0,17.338,13.127,23.092,25.43,27.73v27.099    C138.526,182.66,134.747,179.726,131.651,177.315z M144.311,136.551c-4.762-2.265-7.452-4.844-7.452-9.365    c0-4.027,2.623-6.968,7.452-8.487V136.551z M159.311,163.34c3.097,2.132,5.354,5.068,5.354,9.768c0,4.861-2.402,7.664-5.354,9.275    V163.34z"/>
		<path d="M417.052,104.599H234.266c-4.143,0-7.5,3.358-7.5,7.5s3.357,7.5,7.5,7.5h182.786c4.143,0,7.5-3.358,7.5-7.5    S421.194,104.599,417.052,104.599z"/>
		<path d="M417.052,146.626H234.266c-4.143,0-7.5,3.358-7.5,7.5s3.357,7.5,7.5,7.5h182.786c4.143,0,7.5-3.358,7.5-7.5    S421.194,146.626,417.052,146.626z"/>
		<path d="M417.052,188.653H234.266c-4.143,0-7.5,3.358-7.5,7.5s3.357,7.5,7.5,7.5h182.786c4.143,0,7.5-3.358,7.5-7.5    S421.194,188.653,417.052,188.653z"/>
		<path d="M417.052,230.68H106.247c-4.143,0-7.5,3.358-7.5,7.5s3.357,7.5,7.5,7.5h310.805c4.143,0,7.5-3.358,7.5-7.5    S421.194,230.68,417.052,230.68z"/>
		<path d="M417.052,272.707H106.247c-4.143,0-7.5,3.358-7.5,7.5s3.357,7.5,7.5,7.5h310.805c4.143,0,7.5-3.358,7.5-7.5    S421.194,272.707,417.052,272.707z"/>
	</g>
</g>















</svg>
