<?xml version="1.0" encoding="utf-8"?>
<!-- Generator: Adobe Illustrator 21.0.2, SVG Export Plug-In . SVG Version: 6.00 Build 0)  -->
<svg version="1.1" id="Layer_1" xmlns="http://www.w3.org/2000/svg" xmlns:xlink="http://www.w3.org/1999/xlink" x="0px" y="0px"
	 viewBox="0 0 512 512" style="enable-background:new 0 0 512 512;" xml:space="preserve">
<style type="text/css">
	.st0{fill:#E6E6E6;}
	.st1{fill:#3E5268;}
	.st2{fill:#27394C;}
</style>
<g>
	<g>
		<path class="st0" d="M504.4,60.4v327.1c0,27.8-22.5,50.3-50.3,50.3H57.9c-27.8,0-50.3-22.5-50.3-50.3V60.4
			c0-27.8,22.5-50.3,50.3-50.3h396.2C481.9,10.1,504.4,32.7,504.4,60.4z"/>
		<path class="st1" d="M504.4,361v26.5c0,27.8-22.5,50.3-50.3,50.3H57.9c-27.8,0-50.3-22.5-50.3-50.3V361H504.4z"/>
		<path class="st2" d="M382.2,469.9c0,8.8-3.6,16.8-9.4,22.6c-5.8,5.8-13.8,9.4-22.6,9.4H161.8c-17.7,0-32-14.3-32-32
			c0-8.8,3.6-16.8,9.4-22.6c5.8-5.8,13.8-9.4,22.6-9.4h188.4C367.9,437.9,382.2,452.2,382.2,469.9z"/>
		<path class="st1" d="M382.2,469.9c0,8.8-3.6,16.8-9.4,22.6c-5.8,5.8-13.8,9.4-22.6,9.4H223.9c-17.7,0-32-14.3-32-32
			c0-8.8,3.6-16.8,9.4-22.6s13.8-9.4,22.6-9.4h126.3C367.9,437.9,382.2,452.2,382.2,469.9z"/>
	</g>
	<g>
		<path d="M504.4,141.3c4.2,0,7.6-3.4,7.6-7.6V60.4c0-31.9-26-57.9-57.9-57.9H57.9C26,2.5,0,28.5,0,60.4v327.1
			c0,31.9,26,57.9,57.9,57.9h72.7c-5.3,6.7-8.4,15.2-8.4,24.4c0,21.8,17.8,39.6,39.6,39.6h188.4c21.8,0,39.6-17.8,39.6-39.6
			c0-9.2-3.2-17.7-8.4-24.4h72.7c31.9,0,57.9-26,57.9-57.9V164.1c0-4.2-3.4-7.6-7.6-7.6c-4.2,0-7.6,3.4-7.6,7.6v189.3H141.5
			c-4.2,0-7.6,3.4-7.6,7.6c0,4.2,3.4,7.6,7.6,7.6h355.3v18.9c0,23.5-19.2,42.7-42.7,42.7H350.2H161.8H57.9
			c-23.5,0-42.7-19.2-42.7-42.7v-18.9h95.8c4.2,0,7.6-3.4,7.6-7.6c0-4.2-3.4-7.6-7.6-7.6H15.2v-293c0-23.5,19.2-42.7,42.7-42.7
			h396.2c23.5,0,42.7,19.2,42.7,42.7v73.3C496.8,137.9,500.2,141.3,504.4,141.3z M350.2,445.5c13.5,0,24.4,10.9,24.4,24.4
			s-10.9,24.4-24.4,24.4H161.8c-13.5,0-24.4-10.9-24.4-24.4s10.9-24.4,24.4-24.4L350.2,445.5L350.2,445.5z"/>
		<path d="M253.1,403.5c6.5,2.7,12.9-4.5,9.6-10.6c-1.5-2.9-4.8-4.5-8-3.9c-3.3,0.6-5.8,3.3-6.2,6.6
			C248.1,399,250,402.3,253.1,403.5z"/>
		<path d="M133.5,179.8c-2.6-2-4.7-3.6-7.1-3.6c-4.8,0-8.4,6.3-8.4,10.4c0,7.8,12,16.8,28.3,17.9v7.8c0,4.2,3.4,7.6,7.6,7.6
			c4.2,0,7.6-3.4,7.6-7.6v-8.9c15.1-3.6,23.7-14.3,23.7-29.7c0-17.5-11.2-24.4-23.7-29.4v-24.6c3.4,0.7,5.9,1.9,7.9,3
			c1.9,0.9,3.5,1.8,5.2,1.8c5.6,0,8-6.8,8-10.2c0-3.8-3.1-6.9-9-9c-4.2-1.5-8.8-2.1-12.2-2.4v-9.3c0-4.2-3.4-7.6-7.6-7.6
			c-4.2,0-7.6,3.4-7.6,7.6v9.7c-9.1,1.6-25.8,7.3-25.8,27.7c0,17.6,13.3,23.4,25.8,28.1v27.5C140.4,185.2,136.6,182.2,133.5,179.8z
			 M146.3,138.4c-4.8-2.3-7.6-4.9-7.6-9.5c0-4.1,2.7-7.1,7.6-8.6V138.4z M161.5,165.6c3.1,2.2,5.4,5.1,5.4,9.9
			c0,4.9-2.4,7.8-5.4,9.4V165.6z"/>
		<path d="M422.8,106H237.5c-4.2,0-7.6,3.4-7.6,7.6c0,4.2,3.4,7.6,7.6,7.6h185.3c4.2,0,7.6-3.4,7.6-7.6
			C430.4,109.5,427,106,422.8,106z"/>
		<path d="M422.8,148.7H237.5c-4.2,0-7.6,3.4-7.6,7.6c0,4.2,3.4,7.6,7.6,7.6h185.3c4.2,0,7.6-3.4,7.6-7.6
			C430.4,152.1,427,148.7,422.8,148.7z"/>
		<path d="M422.8,191.3H237.5c-4.2,0-7.6,3.4-7.6,7.6c0,4.2,3.4,7.6,7.6,7.6h185.3c4.2,0,7.6-3.4,7.6-7.6
			C430.4,194.7,427,191.3,422.8,191.3z"/>
		<path d="M422.8,233.9H107.7c-4.2,0-7.6,3.4-7.6,7.6s3.4,7.6,7.6,7.6h315.1c4.2,0,7.6-3.4,7.6-7.6S427,233.9,422.8,233.9z"/>
		<path d="M422.8,276.5H107.7c-4.2,0-7.6,3.4-7.6,7.6s3.4,7.6,7.6,7.6h315.1c4.2,0,7.6-3.4,7.6-7.6S427,276.5,422.8,276.5z"/>
	</g>
</g>
</svg>
