<svg id="Capa_1" data-name="Capa 1" xmlns="http://www.w3.org/2000/svg" xmlns:xlink="http://www.w3.org/1999/xlink" viewBox="0 0 383.81 398.04"><defs><style>.cls-1{fill:url(#linear-gradient);}.cls-2{fill:#f2f2f2;}.cls-2,.cls-3{fill-rule:evenodd;}.cls-3{fill:#fff;}</style><linearGradient id="linear-gradient" x1="187.98" y1="-110.94" x2="194.28" y2="430.85" gradientUnits="userSpaceOnUse"><stop offset="0.13" stop-color="#159033"/><stop offset="0.79" stop-color="#108331"/></linearGradient></defs><title>Mesa de trabajo 1</title><path class="cls-1" d="M192.13,26.65c-93.75,0-169.7,77.41-169.7,173a174.85,174.85,0,0,0,28.93,96.77L23.25,372.74l73-30.25a166.64,166.64,0,0,0,95.87,30.25c93.75,0,169.82-77.41,169.82-173.12C361.94,104.06,285.87,26.65,192.13,26.65Z"/><path class="cls-2" d="M378.63,153.8C357.79,64.79,282.56,4.35,191.85,3c-12,.45-24.88,1.5-36.62,3.89C28,32.77-37.41,175.94,24.09,291.28c2.2,3.14,2.2,6.13,1.76,9.57-9,29.77-17.17,60.59-25.1,90.66-1.32,5.39-1.32,5.39,3.6,3.89,31-8.53,61.79-16.61,92.76-24.38,2.71-.9,4.62-.9,6.9.45,39.78,20.65,81.76,26.17,125.78,18C334.82,368.77,403.73,259.72,378.63,153.8ZM218.79,358c-9.17,1.8-17.77,2.69-22.09,1.94-33.83,0-61.06-7.48-86.38-22.44-3.6-2.24-6.31-3-9.76-1.65-17.32,4.34-34.2,9-51.37,13.46-3.52,1.2-3.89.6-3.08-3.14,4.55-16.16,8.81-32.61,13.8-49.37,1.1-4.49.81-7.78-2-11.52-34.71-57.45-33.17-128.51,5.65-181.76,40.44-55.05,96-77.94,162-63.58,65.1,13.91,106.79,57.15,121.61,123.12C368.2,253.43,308.32,343.19,218.79,358Z"/><path class="cls-2" d="M242,291.28c-6.69.6-13.44-.75-19.88-2.84-43.82-13-77-40.39-103.63-77.49-9.91-13.76-19.38-28.57-22.24-45.93-4-20.35,2.2-38.3,17.25-52.21,5-4.79,19.59-7,25.54-4a25.79,25.79,0,0,1,4.26,5.38c5.43,13.76,11.23,26.63,16.73,39.94a10.54,10.54,0,0,1-.81,8.23c-2.94,6-7.41,11.07-11.74,16-3.67,3.29-3.67,7-1.18,10.77C162,215.88,183.19,235,211.66,246.25c4.12,1.8,7.27,1.2,9.84-2.24,4.91-5.68,9.75-12,14.31-18.1,2.78-3.89,6.52-4.49,10.64-2.84,9.39,4.49,18.64,9,27.6,13.17a59.93,59.93,0,0,0,6.45,3c9.47,4.79,9.47,5.53,8.37,15.86-1.25,20.35-16.59,30.67-34.13,35.75A33.7,33.7,0,0,1,242,291.28Z"/><path class="cls-3" d="M373.26,155.26C353,68.81,280,10.11,191.86,8.81a224.63,224.63,0,0,0-35.57,3.78C32.77,37.72-30.81,176.76,28.92,288.78c2.14,3.05,2.14,6,1.71,9.3C21.93,327,14,356.93,6.25,386.13,5,391.36,5,391.36,9.75,389.91c30.15-8.28,60-16.13,90.09-23.68,2.64-.87,4.49-.87,6.7.44,38.63,20.05,79.4,25.42,122.16,17.44C330.71,364,397.63,258.13,373.26,155.26ZM218,353.58c-8.9,1.74-17.25,2.62-21.46,1.89-32.86,0-59.3-7.26-83.89-21.79-3.49-2.18-6.13-2.91-9.48-1.6C86.37,336.29,70,340.8,53.3,345.16c-3.42,1.16-3.78.58-3-3.05,4.42-15.69,8.55-31.67,13.4-47.95,1.07-4.36.78-7.56-1.93-11.19-33.71-55.79-32.22-124.81,5.49-176.53,39.27-53.47,93.23-75.7,157.3-61.75,63.22,13.51,103.71,55.5,118.11,119.58C363.13,252,305,339.2,218,353.58Z"/><path class="cls-3" d="M240.54,288.78c-6.5.58-13-.73-19.31-2.76-42.56-12.64-74.77-39.23-100.65-75.26C111,197.39,101.76,183,99,166.16c-3.92-19.76,2.14-37.19,16.75-50.71,4.85-4.65,19-6.83,24.8-3.92a25,25,0,0,1,4.13,5.23c5.28,13.37,10.91,25.86,16.25,38.79a10.24,10.24,0,0,1-.78,8c-2.85,5.81-7.2,10.75-11.4,15.55-3.56,3.2-3.56,6.83-1.14,10.46,15.25,26,35.85,44.61,63.5,55.5,4,1.74,7.07,1.16,9.56-2.18,4.77-5.52,9.47-11.62,13.9-17.58,2.7-3.78,6.34-4.36,10.33-2.76,9.12,4.36,18.1,8.72,26.8,12.79a58.2,58.2,0,0,0,6.26,2.91c9.2,4.65,9.2,5.38,8.13,15.4-1.21,19.76-16.12,29.79-33.15,34.73A32.73,32.73,0,0,1,240.54,288.78Z"/></svg>